# xmcd
#
# Track frame offsets:
#	150
#	15871
#	38280
#	54679
#	71428
#	87746
#	103835
#	118411
#	141468
#	159299
#	171049
#	186020
#	203212
#	220345
#	234026
#
# Disc length: 3350 seconds
#
# Revision: 0
# Processed by: cddbd v1.5.2PL0 Copyright (c) Steve Scherf et al.
# Submitted via: EasyCDDAExtractor 2011.0.0.0
#
DISCID=ca0d140f
DTITLE=박홍래 - 향수에 젖어드는 하모니카 and 클라리넷
DYEAR=2014
DGENRE=Blues
TTITLE0=김종환 - 존재의 이유
TTITLE1=김광석 - 거리에서
TTITLE2=김종서 - 대답없는 너
TTITLE3=우순실 - 잃어버린 우산
TTITLE4=변진섭 - 홀로 된다는 것
TTITLE5=김정호 - 이름 모를 소녀
TTITLE6=영사운드 - 등불
TTITLE7=조덕배 - 꿈에
TTITLE8=김현식 - 골목길
TTITLE9=해바라기 - 사랑으로
TTITLE10=김추자 - 미련
TTITLE11=이문세 - 난 아직 모르잖아요
TTITLE12=한경애 - 옛 시인의 노래
TTITLE13=김민기 - 아침이슬
TTITLE14=하남석 - 밤에 떠난 여인
EXTD=
EXTT0=
EXTT1=
EXTT2=
EXTT3=
EXTT4=
EXTT5=
EXTT6=
EXTT7=
EXTT8=
EXTT9=
EXTT10=
EXTT11=
EXTT12=
EXTT13=
EXTT14=
PLAYORDER=
